<mxfile host="app.diagrams.net" modified="2021-06-25T16:21:41.818Z" agent="5.0 (Macintosh; Intel Mac OS X 10_15_7) AppleWebKit/605.1.15 (KHTML, like Gecko) Version/14.1.1 Safari/605.1.15" etag="sDqislvMb1PV7fQUtL4T" version="14.8.1" type="github">
  <diagram id="D4vt_JizwiGhyIq_tCMl" name="Page-1">
    <mxGraphModel dx="946" dy="1745" grid="1" gridSize="10" guides="1" tooltips="1" connect="1" arrows="1" fold="1" page="1" pageScale="1" pageWidth="850" pageHeight="1100" math="0" shadow="0">
      <root>
        <mxCell id="0" />
        <mxCell id="1" parent="0" />
        <mxCell id="d7MVmfg-RTv1msQ8y9jw-9" style="edgeStyle=orthogonalEdgeStyle;rounded=0;orthogonalLoop=1;jettySize=auto;html=1;exitX=1;exitY=0.3333333333333333;exitDx=0;exitDy=0;exitPerimeter=0;" edge="1" parent="1" source="d7MVmfg-RTv1msQ8y9jw-2" target="d7MVmfg-RTv1msQ8y9jw-8">
          <mxGeometry relative="1" as="geometry" />
        </mxCell>
        <mxCell id="d7MVmfg-RTv1msQ8y9jw-2" value="Actor" style="shape=umlActor;verticalLabelPosition=bottom;verticalAlign=top;html=1;outlineConnect=0;" vertex="1" parent="1">
          <mxGeometry x="50" y="30" width="30" height="60" as="geometry" />
        </mxCell>
        <mxCell id="d7MVmfg-RTv1msQ8y9jw-11" style="edgeStyle=orthogonalEdgeStyle;rounded=0;orthogonalLoop=1;jettySize=auto;html=1;exitX=0.86;exitY=0.39;exitDx=0;exitDy=0;exitPerimeter=0;" edge="1" parent="1" source="d7MVmfg-RTv1msQ8y9jw-8" target="d7MVmfg-RTv1msQ8y9jw-10">
          <mxGeometry relative="1" as="geometry" />
        </mxCell>
        <mxCell id="d7MVmfg-RTv1msQ8y9jw-8" value="" style="outlineConnect=0;dashed=0;verticalLabelPosition=bottom;verticalAlign=top;align=center;html=1;shape=mxgraph.aws3.application;fillColor=#F58534;gradientColor=none;" vertex="1" parent="1">
          <mxGeometry x="120" y="130" width="34.5" height="64.5" as="geometry" />
        </mxCell>
        <mxCell id="d7MVmfg-RTv1msQ8y9jw-16" style="edgeStyle=orthogonalEdgeStyle;rounded=0;orthogonalLoop=1;jettySize=auto;html=1;entryX=0;entryY=0.5;entryDx=0;entryDy=0;entryPerimeter=0;" edge="1" parent="1" source="d7MVmfg-RTv1msQ8y9jw-10" target="d7MVmfg-RTv1msQ8y9jw-15">
          <mxGeometry relative="1" as="geometry" />
        </mxCell>
        <mxCell id="d7MVmfg-RTv1msQ8y9jw-10" value="" style="points=[[0,0,0],[0.25,0,0],[0.5,0,0],[0.75,0,0],[1,0,0],[0,1,0],[0.25,1,0],[0.5,1,0],[0.75,1,0],[1,1,0],[0,0.25,0],[0,0.5,0],[0,0.75,0],[1,0.25,0],[1,0.5,0],[1,0.75,0]];outlineConnect=0;fontColor=#232F3E;gradientColor=#F34482;gradientDirection=north;fillColor=#BC1356;strokeColor=#ffffff;dashed=0;verticalLabelPosition=bottom;verticalAlign=top;align=center;html=1;fontSize=12;fontStyle=0;aspect=fixed;shape=mxgraph.aws4.resourceIcon;resIcon=mxgraph.aws4.api_gateway;" vertex="1" parent="1">
          <mxGeometry x="207.5" y="244" width="85" height="85" as="geometry" />
        </mxCell>
        <mxCell id="d7MVmfg-RTv1msQ8y9jw-12" value="E CommerceApp&lt;br&gt;" style="text;html=1;strokeColor=none;fillColor=none;align=center;verticalAlign=middle;whiteSpace=wrap;rounded=0;" vertex="1" parent="1">
          <mxGeometry x="117" y="210" width="40" height="20" as="geometry" />
        </mxCell>
        <mxCell id="d7MVmfg-RTv1msQ8y9jw-13" value="Api Gateway /OAuth&amp;nbsp;&lt;br&gt;" style="text;html=1;strokeColor=none;fillColor=none;align=center;verticalAlign=middle;whiteSpace=wrap;rounded=0;" vertex="1" parent="1">
          <mxGeometry x="240" y="215" width="40" height="20" as="geometry" />
        </mxCell>
        <mxCell id="d7MVmfg-RTv1msQ8y9jw-104" style="edgeStyle=orthogonalEdgeStyle;rounded=0;orthogonalLoop=1;jettySize=auto;html=1;entryX=0.433;entryY=0.235;entryDx=0;entryDy=0;entryPerimeter=0;" edge="1" parent="1" source="d7MVmfg-RTv1msQ8y9jw-15" target="d7MVmfg-RTv1msQ8y9jw-106">
          <mxGeometry relative="1" as="geometry">
            <mxPoint x="385" y="410" as="targetPoint" />
          </mxGeometry>
        </mxCell>
        <mxCell id="d7MVmfg-RTv1msQ8y9jw-119" style="edgeStyle=orthogonalEdgeStyle;rounded=0;orthogonalLoop=1;jettySize=auto;html=1;entryX=0.5;entryY=0;entryDx=0;entryDy=0;entryPerimeter=0;" edge="1" parent="1" source="d7MVmfg-RTv1msQ8y9jw-15" target="d7MVmfg-RTv1msQ8y9jw-112">
          <mxGeometry relative="1" as="geometry">
            <Array as="points">
              <mxPoint x="318" y="320" />
            </Array>
          </mxGeometry>
        </mxCell>
        <mxCell id="d7MVmfg-RTv1msQ8y9jw-15" value="" style="outlineConnect=0;dashed=0;verticalLabelPosition=bottom;verticalAlign=top;align=center;html=1;shape=mxgraph.aws3.application_discovery_service;fillColor=#5294CF;gradientColor=none;" vertex="1" parent="1">
          <mxGeometry x="345" y="236" width="80" height="101" as="geometry" />
        </mxCell>
        <mxCell id="d7MVmfg-RTv1msQ8y9jw-17" value="Discover Service&lt;br&gt;/Load Balancer" style="text;html=1;align=center;verticalAlign=middle;resizable=0;points=[];autosize=1;strokeColor=none;" vertex="1" parent="1">
          <mxGeometry x="325" y="205" width="110" height="30" as="geometry" />
        </mxCell>
        <mxCell id="d7MVmfg-RTv1msQ8y9jw-37" style="edgeStyle=orthogonalEdgeStyle;rounded=0;orthogonalLoop=1;jettySize=auto;html=1;exitX=0.005;exitY=0.63;exitDx=0;exitDy=0;exitPerimeter=0;entryX=1;entryY=0.604;entryDx=0;entryDy=0;entryPerimeter=0;" edge="1" parent="1" source="d7MVmfg-RTv1msQ8y9jw-19" target="d7MVmfg-RTv1msQ8y9jw-15">
          <mxGeometry relative="1" as="geometry" />
        </mxCell>
        <mxCell id="d7MVmfg-RTv1msQ8y9jw-84" style="edgeStyle=orthogonalEdgeStyle;rounded=0;orthogonalLoop=1;jettySize=auto;html=1;entryX=0.5;entryY=0;entryDx=0;entryDy=0;" edge="1" parent="1" source="d7MVmfg-RTv1msQ8y9jw-19" target="d7MVmfg-RTv1msQ8y9jw-27">
          <mxGeometry relative="1" as="geometry" />
        </mxCell>
        <mxCell id="d7MVmfg-RTv1msQ8y9jw-86" style="edgeStyle=orthogonalEdgeStyle;rounded=0;orthogonalLoop=1;jettySize=auto;html=1;" edge="1" parent="1" source="d7MVmfg-RTv1msQ8y9jw-19">
          <mxGeometry relative="1" as="geometry">
            <mxPoint x="670.5" y="40" as="targetPoint" />
          </mxGeometry>
        </mxCell>
        <mxCell id="d7MVmfg-RTv1msQ8y9jw-87" style="edgeStyle=orthogonalEdgeStyle;rounded=0;orthogonalLoop=1;jettySize=auto;html=1;entryX=0;entryY=0.5;entryDx=0;entryDy=0;entryPerimeter=0;" edge="1" parent="1" source="d7MVmfg-RTv1msQ8y9jw-19" target="d7MVmfg-RTv1msQ8y9jw-47">
          <mxGeometry relative="1" as="geometry" />
        </mxCell>
        <mxCell id="d7MVmfg-RTv1msQ8y9jw-19" value="" style="html=1;dashed=0;whitespace=wrap;fillColor=#2875E2;strokeColor=#ffffff;points=[[0.005,0.63,0],[0.1,0.2,0],[0.9,0.2,0],[0.5,0,0],[0.995,0.63,0],[0.72,0.99,0],[0.5,1,0],[0.28,0.99,0]];shape=mxgraph.kubernetes.icon;prIcon=api" vertex="1" parent="1">
          <mxGeometry x="620.5" y="116.5" width="100" height="78" as="geometry" />
        </mxCell>
        <mxCell id="d7MVmfg-RTv1msQ8y9jw-21" value="/fleet-management/delivery?isLaungHaul&amp;amp;isFirstMile" style="text;html=1;strokeColor=none;fillColor=none;align=center;verticalAlign=middle;whiteSpace=wrap;rounded=0;" vertex="1" parent="1">
          <mxGeometry x="470.5" y="130" width="180" height="20" as="geometry" />
        </mxCell>
        <mxCell id="d7MVmfg-RTv1msQ8y9jw-27" value="" style="shape=cylinder;whiteSpace=wrap;html=1;boundedLbl=1;backgroundOutline=1;dashed=0;fontColor=#232F3E;fontStyle=0;verticalAlign=top;strokeColor=#ffffff;fillColor=#5A30B5;gradientColor=#945DF2;gradientDirection=north;" vertex="1" parent="1">
          <mxGeometry x="640.5" y="270" width="60" height="80" as="geometry" />
        </mxCell>
        <mxCell id="d7MVmfg-RTv1msQ8y9jw-36" value="async" style="text;html=1;strokeColor=none;fillColor=none;align=center;verticalAlign=middle;whiteSpace=wrap;rounded=0;" vertex="1" parent="1">
          <mxGeometry x="740" y="160" width="40" height="20" as="geometry" />
        </mxCell>
        <mxCell id="d7MVmfg-RTv1msQ8y9jw-38" value="200 OK with pricing" style="text;html=1;strokeColor=none;fillColor=none;align=center;verticalAlign=middle;whiteSpace=wrap;rounded=0;" vertex="1" parent="1">
          <mxGeometry x="500" y="167" width="165" height="35" as="geometry" />
        </mxCell>
        <mxCell id="d7MVmfg-RTv1msQ8y9jw-42" value="Step Functions&lt;br&gt;" style="text;html=1;strokeColor=none;fillColor=none;align=center;verticalAlign=middle;whiteSpace=wrap;rounded=0;" vertex="1" parent="1">
          <mxGeometry x="1060" y="300" width="40" height="20" as="geometry" />
        </mxCell>
        <mxCell id="d7MVmfg-RTv1msQ8y9jw-53" style="edgeStyle=orthogonalEdgeStyle;rounded=0;orthogonalLoop=1;jettySize=auto;html=1;" edge="1" parent="1" source="d7MVmfg-RTv1msQ8y9jw-43" target="d7MVmfg-RTv1msQ8y9jw-52">
          <mxGeometry relative="1" as="geometry" />
        </mxCell>
        <mxCell id="d7MVmfg-RTv1msQ8y9jw-116" style="edgeStyle=orthogonalEdgeStyle;rounded=0;orthogonalLoop=1;jettySize=auto;html=1;" edge="1" parent="1" source="d7MVmfg-RTv1msQ8y9jw-43" target="d7MVmfg-RTv1msQ8y9jw-72">
          <mxGeometry relative="1" as="geometry">
            <mxPoint x="1189" y="540" as="targetPoint" />
            <Array as="points">
              <mxPoint x="1189" y="435" />
              <mxPoint x="860" y="435" />
            </Array>
          </mxGeometry>
        </mxCell>
        <mxCell id="d7MVmfg-RTv1msQ8y9jw-43" value="" style="points=[[0,0,0],[0.25,0,0],[0.5,0,0],[0.75,0,0],[1,0,0],[0,1,0],[0.25,1,0],[0.5,1,0],[0.75,1,0],[1,1,0],[0,0.25,0],[0,0.5,0],[0,0.75,0],[1,0.25,0],[1,0.5,0],[1,0.75,0]];outlineConnect=0;fontColor=#232F3E;gradientColor=#F34482;gradientDirection=north;fillColor=#BC1356;strokeColor=#ffffff;dashed=0;verticalLabelPosition=bottom;verticalAlign=top;align=center;html=1;fontSize=12;fontStyle=0;aspect=fixed;shape=mxgraph.aws4.resourceIcon;resIcon=mxgraph.aws4.sns;" vertex="1" parent="1">
          <mxGeometry x="1150" y="251" width="78" height="78" as="geometry" />
        </mxCell>
        <mxCell id="d7MVmfg-RTv1msQ8y9jw-63" style="edgeStyle=orthogonalEdgeStyle;rounded=0;orthogonalLoop=1;jettySize=auto;html=1;" edge="1" parent="1" source="d7MVmfg-RTv1msQ8y9jw-46" target="d7MVmfg-RTv1msQ8y9jw-43">
          <mxGeometry relative="1" as="geometry" />
        </mxCell>
        <mxCell id="d7MVmfg-RTv1msQ8y9jw-73" value="" style="edgeStyle=orthogonalEdgeStyle;rounded=0;orthogonalLoop=1;jettySize=auto;html=1;" edge="1" parent="1" source="d7MVmfg-RTv1msQ8y9jw-46" target="d7MVmfg-RTv1msQ8y9jw-72">
          <mxGeometry relative="1" as="geometry" />
        </mxCell>
        <mxCell id="d7MVmfg-RTv1msQ8y9jw-91" value="" style="edgeStyle=orthogonalEdgeStyle;rounded=0;orthogonalLoop=1;jettySize=auto;html=1;" edge="1" parent="1" source="d7MVmfg-RTv1msQ8y9jw-46" target="d7MVmfg-RTv1msQ8y9jw-90">
          <mxGeometry relative="1" as="geometry" />
        </mxCell>
        <mxCell id="d7MVmfg-RTv1msQ8y9jw-46" value="" style="outlineConnect=0;dashed=0;verticalLabelPosition=bottom;verticalAlign=top;align=center;html=1;shape=mxgraph.aws3.step_functions;fillColor=#D9A741;gradientColor=none;" vertex="1" parent="1">
          <mxGeometry x="988.25" y="246.75" width="66.5" height="86.5" as="geometry" />
        </mxCell>
        <mxCell id="d7MVmfg-RTv1msQ8y9jw-88" value="" style="edgeStyle=orthogonalEdgeStyle;rounded=0;orthogonalLoop=1;jettySize=auto;html=1;" edge="1" parent="1" source="d7MVmfg-RTv1msQ8y9jw-47" target="d7MVmfg-RTv1msQ8y9jw-60">
          <mxGeometry relative="1" as="geometry" />
        </mxCell>
        <mxCell id="d7MVmfg-RTv1msQ8y9jw-47" value="" style="outlineConnect=0;dashed=0;verticalLabelPosition=bottom;verticalAlign=top;align=center;html=1;shape=mxgraph.aws3.sqs;fillColor=#D9A741;gradientColor=none;" vertex="1" parent="1">
          <mxGeometry x="811.75" y="109" width="76.5" height="93" as="geometry" />
        </mxCell>
        <mxCell id="d7MVmfg-RTv1msQ8y9jw-50" value="AWS SNS&amp;nbsp;" style="text;html=1;strokeColor=none;fillColor=none;align=center;verticalAlign=middle;whiteSpace=wrap;rounded=0;" vertex="1" parent="1">
          <mxGeometry x="1150" y="333.25" width="40" height="20" as="geometry" />
        </mxCell>
        <mxCell id="d7MVmfg-RTv1msQ8y9jw-52" value="Mobile client" style="outlineConnect=0;fontColor=#232F3E;gradientColor=none;strokeColor=#232F3E;fillColor=#ffffff;dashed=0;verticalLabelPosition=bottom;verticalAlign=top;align=center;html=1;fontSize=12;fontStyle=0;aspect=fixed;shape=mxgraph.aws4.resourceIcon;resIcon=mxgraph.aws4.mobile_client;" vertex="1" parent="1">
          <mxGeometry x="1300" y="260" width="60" height="60" as="geometry" />
        </mxCell>
        <mxCell id="d7MVmfg-RTv1msQ8y9jw-62" style="edgeStyle=orthogonalEdgeStyle;rounded=0;orthogonalLoop=1;jettySize=auto;html=1;" edge="1" parent="1" source="d7MVmfg-RTv1msQ8y9jw-60" target="d7MVmfg-RTv1msQ8y9jw-46">
          <mxGeometry relative="1" as="geometry" />
        </mxCell>
        <mxCell id="d7MVmfg-RTv1msQ8y9jw-60" value="AWS Lambda" style="outlineConnect=0;fontColor=#232F3E;gradientColor=none;strokeColor=#ffffff;fillColor=#232F3E;dashed=0;verticalLabelPosition=middle;verticalAlign=bottom;align=center;html=1;whiteSpace=wrap;fontSize=10;fontStyle=1;spacing=3;shape=mxgraph.aws4.productIcon;prIcon=mxgraph.aws4.lambda;" vertex="1" parent="1">
          <mxGeometry x="810" y="240" width="80" height="100" as="geometry" />
        </mxCell>
        <mxCell id="d7MVmfg-RTv1msQ8y9jw-72" value="" style="shape=cylinder;whiteSpace=wrap;html=1;boundedLbl=1;backgroundOutline=1;dashed=0;verticalAlign=top;fillColor=#D9A741;" vertex="1" parent="1">
          <mxGeometry x="820" y="490" width="60" height="77" as="geometry" />
        </mxCell>
        <mxCell id="d7MVmfg-RTv1msQ8y9jw-78" value="DB" style="text;html=1;strokeColor=none;fillColor=none;align=center;verticalAlign=middle;whiteSpace=wrap;rounded=0;" vertex="1" parent="1">
          <mxGeometry x="830" y="570" width="40" height="20" as="geometry" />
        </mxCell>
        <mxCell id="d7MVmfg-RTv1msQ8y9jw-80" value="AWS &lt;br&gt;SQS" style="text;html=1;strokeColor=none;fillColor=none;align=center;verticalAlign=middle;whiteSpace=wrap;rounded=0;" vertex="1" parent="1">
          <mxGeometry x="900" y="145.5" width="40" height="20" as="geometry" />
        </mxCell>
        <mxCell id="d7MVmfg-RTv1msQ8y9jw-82" value="DB" style="text;html=1;strokeColor=none;fillColor=none;align=center;verticalAlign=middle;whiteSpace=wrap;rounded=0;" vertex="1" parent="1">
          <mxGeometry x="650.5" y="300" width="40" height="20" as="geometry" />
        </mxCell>
        <mxCell id="d7MVmfg-RTv1msQ8y9jw-83" value="DB" style="text;html=1;strokeColor=none;fillColor=none;align=center;verticalAlign=middle;whiteSpace=wrap;rounded=0;" vertex="1" parent="1">
          <mxGeometry x="740" y="430" width="40" height="20" as="geometry" />
        </mxCell>
        <mxCell id="d7MVmfg-RTv1msQ8y9jw-85" value="" style="shape=image;html=1;verticalAlign=top;verticalLabelPosition=bottom;labelBackgroundColor=#ffffff;imageAspect=0;aspect=fixed;image=https://cdn4.iconfinder.com/data/icons/flatified/128/map.png" vertex="1" parent="1">
          <mxGeometry x="612" y="-70" width="128" height="128" as="geometry" />
        </mxCell>
        <mxCell id="d7MVmfg-RTv1msQ8y9jw-100" style="edgeStyle=orthogonalEdgeStyle;rounded=0;orthogonalLoop=1;jettySize=auto;html=1;" edge="1" parent="1" source="d7MVmfg-RTv1msQ8y9jw-90" target="d7MVmfg-RTv1msQ8y9jw-99">
          <mxGeometry relative="1" as="geometry" />
        </mxCell>
        <mxCell id="d7MVmfg-RTv1msQ8y9jw-101" style="edgeStyle=orthogonalEdgeStyle;rounded=0;orthogonalLoop=1;jettySize=auto;html=1;" edge="1" parent="1" source="d7MVmfg-RTv1msQ8y9jw-90" target="d7MVmfg-RTv1msQ8y9jw-98">
          <mxGeometry relative="1" as="geometry" />
        </mxCell>
        <mxCell id="d7MVmfg-RTv1msQ8y9jw-90" value="checkFirstMile or Laung Haul" style="shape=process;whiteSpace=wrap;html=1;backgroundOutline=1;dashed=0;verticalAlign=top;fillColor=#D9A741;" vertex="1" parent="1">
          <mxGeometry x="961.5" y="130" width="120" height="60" as="geometry" />
        </mxCell>
        <mxCell id="d7MVmfg-RTv1msQ8y9jw-92" value="check shortest route using maps api dynamically and derive the price" style="rounded=1;whiteSpace=wrap;html=1;" vertex="1" parent="1">
          <mxGeometry x="690" y="56.5" width="120" height="60" as="geometry" />
        </mxCell>
        <mxCell id="d7MVmfg-RTv1msQ8y9jw-98" value="Lambda&#xa;Function" style="outlineConnect=0;fontColor=#232F3E;gradientColor=none;strokeColor=#232F3E;fillColor=#ffffff;dashed=0;verticalLabelPosition=bottom;verticalAlign=top;align=center;html=1;fontSize=12;fontStyle=0;aspect=fixed;shape=mxgraph.aws4.resourceIcon;resIcon=mxgraph.aws4.lambda_function;" vertex="1" parent="1">
          <mxGeometry x="1240" y="130" width="60" height="60" as="geometry" />
        </mxCell>
        <mxCell id="d7MVmfg-RTv1msQ8y9jw-99" value="Lambda&#xa;Function" style="outlineConnect=0;fontColor=#232F3E;gradientColor=none;strokeColor=#232F3E;fillColor=#ffffff;dashed=0;verticalLabelPosition=bottom;verticalAlign=top;align=center;html=1;fontSize=12;fontStyle=0;aspect=fixed;shape=mxgraph.aws4.resourceIcon;resIcon=mxgraph.aws4.lambda_function;" vertex="1" parent="1">
          <mxGeometry x="991.5" y="-3.5" width="60" height="60" as="geometry" />
        </mxCell>
        <mxCell id="d7MVmfg-RTv1msQ8y9jw-103" style="edgeStyle=orthogonalEdgeStyle;rounded=0;orthogonalLoop=1;jettySize=auto;html=1;" edge="1" parent="1" source="d7MVmfg-RTv1msQ8y9jw-102" target="d7MVmfg-RTv1msQ8y9jw-10">
          <mxGeometry relative="1" as="geometry" />
        </mxCell>
        <mxCell id="d7MVmfg-RTv1msQ8y9jw-102" value="" style="pointerEvents=1;shadow=0;dashed=0;html=1;strokeColor=none;fillColor=#434445;aspect=fixed;labelPosition=center;verticalLabelPosition=bottom;verticalAlign=top;align=center;outlineConnect=0;shape=mxgraph.vvd.nsx_dashboard;" vertex="1" parent="1">
          <mxGeometry x="49.999999999999986" y="246.75" width="114.52" height="106.5" as="geometry" />
        </mxCell>
        <mxCell id="d7MVmfg-RTv1msQ8y9jw-108" style="edgeStyle=orthogonalEdgeStyle;rounded=0;orthogonalLoop=1;jettySize=auto;html=1;" edge="1" parent="1" source="d7MVmfg-RTv1msQ8y9jw-106" target="d7MVmfg-RTv1msQ8y9jw-27">
          <mxGeometry relative="1" as="geometry" />
        </mxCell>
        <mxCell id="d7MVmfg-RTv1msQ8y9jw-109" style="edgeStyle=orthogonalEdgeStyle;rounded=0;orthogonalLoop=1;jettySize=auto;html=1;entryX=0;entryY=0.5;entryDx=0;entryDy=0;" edge="1" parent="1" source="d7MVmfg-RTv1msQ8y9jw-106" target="d7MVmfg-RTv1msQ8y9jw-72">
          <mxGeometry relative="1" as="geometry">
            <mxPoint x="690" y="440" as="targetPoint" />
          </mxGeometry>
        </mxCell>
        <mxCell id="d7MVmfg-RTv1msQ8y9jw-121" style="edgeStyle=orthogonalEdgeStyle;rounded=0;orthogonalLoop=1;jettySize=auto;html=1;" edge="1" parent="1" source="d7MVmfg-RTv1msQ8y9jw-106">
          <mxGeometry relative="1" as="geometry">
            <mxPoint x="370" y="340" as="targetPoint" />
          </mxGeometry>
        </mxCell>
        <mxCell id="d7MVmfg-RTv1msQ8y9jw-106" value="" style="html=1;dashed=0;whitespace=wrap;fillColor=#2875E2;strokeColor=#ffffff;points=[[0.005,0.63,0],[0.1,0.2,0],[0.9,0.2,0],[0.5,0,0],[0.995,0.63,0],[0.72,0.99,0],[0.5,1,0],[0.28,0.99,0]];shape=mxgraph.kubernetes.icon;prIcon=api" vertex="1" parent="1">
          <mxGeometry x="540" y="358.5" width="60" height="91.5" as="geometry" />
        </mxCell>
        <mxCell id="d7MVmfg-RTv1msQ8y9jw-107" value="/dashboards/fleet-management" style="text;html=1;strokeColor=none;fillColor=none;align=center;verticalAlign=middle;whiteSpace=wrap;rounded=0;" vertex="1" parent="1">
          <mxGeometry x="485.5" y="440" width="155" height="20" as="geometry" />
        </mxCell>
        <mxCell id="d7MVmfg-RTv1msQ8y9jw-126" style="edgeStyle=orthogonalEdgeStyle;rounded=0;orthogonalLoop=1;jettySize=auto;html=1;entryX=0.025;entryY=0.46;entryDx=0;entryDy=0;entryPerimeter=0;" edge="1" parent="1" source="d7MVmfg-RTv1msQ8y9jw-112" target="d7MVmfg-RTv1msQ8y9jw-124">
          <mxGeometry relative="1" as="geometry" />
        </mxCell>
        <mxCell id="d7MVmfg-RTv1msQ8y9jw-112" value="" style="html=1;dashed=0;whitespace=wrap;fillColor=#2875E2;strokeColor=#ffffff;points=[[0.005,0.63,0],[0.1,0.2,0],[0.9,0.2,0],[0.5,0,0],[0.995,0.63,0],[0.72,0.99,0],[0.5,1,0],[0.28,0.99,0]];shape=mxgraph.kubernetes.icon;prIcon=api" vertex="1" parent="1">
          <mxGeometry x="292.5" y="542" width="50" height="48" as="geometry" />
        </mxCell>
        <mxCell id="d7MVmfg-RTv1msQ8y9jw-118" style="edgeStyle=orthogonalEdgeStyle;rounded=0;orthogonalLoop=1;jettySize=auto;html=1;" edge="1" parent="1" source="d7MVmfg-RTv1msQ8y9jw-117">
          <mxGeometry relative="1" as="geometry">
            <mxPoint x="220" y="330" as="targetPoint" />
          </mxGeometry>
        </mxCell>
        <mxCell id="d7MVmfg-RTv1msQ8y9jw-117" value="" style="aspect=fixed;html=1;points=[];align=center;image;fontSize=12;image=img/lib/azure2/general/Help_and_Support.svg;" vertex="1" parent="1">
          <mxGeometry x="30" y="440" width="56.00000000000001" height="69" as="geometry" />
        </mxCell>
        <mxCell id="d7MVmfg-RTv1msQ8y9jw-120" value="/support/alerts" style="text;html=1;strokeColor=none;fillColor=none;align=center;verticalAlign=middle;whiteSpace=wrap;rounded=0;" vertex="1" parent="1">
          <mxGeometry x="342.5" y="480" width="40" height="20" as="geometry" />
        </mxCell>
        <mxCell id="d7MVmfg-RTv1msQ8y9jw-128" style="edgeStyle=orthogonalEdgeStyle;rounded=0;orthogonalLoop=1;jettySize=auto;html=1;" edge="1" parent="1" source="d7MVmfg-RTv1msQ8y9jw-124" target="d7MVmfg-RTv1msQ8y9jw-127">
          <mxGeometry relative="1" as="geometry" />
        </mxCell>
        <mxCell id="d7MVmfg-RTv1msQ8y9jw-134" style="edgeStyle=orthogonalEdgeStyle;rounded=0;orthogonalLoop=1;jettySize=auto;html=1;entryX=0.125;entryY=0.51;entryDx=0;entryDy=0;entryPerimeter=0;" edge="1" parent="1" source="d7MVmfg-RTv1msQ8y9jw-124" target="d7MVmfg-RTv1msQ8y9jw-132">
          <mxGeometry relative="1" as="geometry" />
        </mxCell>
        <mxCell id="d7MVmfg-RTv1msQ8y9jw-124" value="Amazon SNS" style="outlineConnect=0;fontColor=#232F3E;gradientColor=none;strokeColor=#ffffff;fillColor=#232F3E;dashed=0;verticalLabelPosition=middle;verticalAlign=bottom;align=center;html=1;whiteSpace=wrap;fontSize=10;fontStyle=1;spacing=3;shape=mxgraph.aws4.productIcon;prIcon=mxgraph.aws4.sns;" vertex="1" parent="1">
          <mxGeometry x="435" y="520" width="80" height="100" as="geometry" />
        </mxCell>
        <mxCell id="d7MVmfg-RTv1msQ8y9jw-127" value="Mobile client" style="outlineConnect=0;fontColor=#232F3E;gradientColor=none;strokeColor=#232F3E;fillColor=#ffffff;dashed=0;verticalLabelPosition=bottom;verticalAlign=top;align=center;html=1;fontSize=12;fontStyle=0;aspect=fixed;shape=mxgraph.aws4.resourceIcon;resIcon=mxgraph.aws4.mobile_client;" vertex="1" parent="1">
          <mxGeometry x="445" y="640" width="60" height="60" as="geometry" />
        </mxCell>
        <mxCell id="d7MVmfg-RTv1msQ8y9jw-132" value="" style="outlineConnect=0;dashed=0;verticalLabelPosition=bottom;verticalAlign=top;align=center;html=1;shape=mxgraph.aws3.email;fillColor=#D9A741;gradientColor=none;" vertex="1" parent="1">
          <mxGeometry x="600" y="539.25" width="81" height="61.5" as="geometry" />
        </mxCell>
      </root>
    </mxGraphModel>
  </diagram>
</mxfile>
